<svg width="80" height="29" viewBox="0 0 80 29" fill="none" xmlns="http://www.w3.org/2000/svg">
<circle cx="19.5851" cy="4.91844" r="4.91844" fill="#CB333B"/>
<path fill-rule="evenodd" clip-rule="evenodd" d="M19.7221 20.9559C21.8363 18.859 23.1456 15.9519 23.1456 12.739C23.1456 6.34748 17.9643 1.16617 11.5728 1.16617C5.18131 1.16617 0 6.34748 0 12.739C0 19.1304 5.18131 24.3117 11.5728 24.3117C11.5899 24.3117 11.6071 24.3117 11.6242 24.3116V28.7675L15.6747 25.0063L19.7251 20.9559H19.7221Z" fill="#FFCAD4"/>
<path fill-rule="evenodd" clip-rule="evenodd" d="M5.46668 12.5333C9.67996 12.5333 13.3005 9.99533 14.8828 6.36479C15.5005 8.37529 17.3721 9.83685 19.5851 9.83685C20.6754 9.83685 21.6829 9.48206 22.4983 8.88165C20.9076 4.38641 16.6195 1.1662 11.5794 1.1662C5.76503 1.1662 0.951608 5.4516 0.125305 11.0362C1.68144 11.986 3.51015 12.5333 5.46668 12.5333Z" fill="#FF585D"/>
<path d="M28.9832 6.6828V23.0323H32.0398V20.1995V6.6828H28.9832Z" fill="white"/>
<path d="M38.3343 10.9872V23.0323H35.2777V10.9872H38.3343Z" fill="white"/>
<path d="M51.7574 11.9463C52.162 12.3478 52.4616 12.8311 52.6564 13.3962C52.8512 13.9464 52.9711 14.5115 53.016 15.0914C53.061 15.6565 53.0834 16.3629 53.0834 17.2105V23.0323H49.9819V17.3443C49.9819 15.8127 49.7122 14.7569 49.1728 14.1769C48.7533 13.7159 48.154 13.4854 47.3748 13.4854C46.7755 13.4854 46.2586 13.6416 45.8241 13.9538C45.3596 14.2959 45.0599 14.8089 44.9251 15.4929C44.8352 15.9242 44.7902 16.69 44.7902 17.7905V23.0323H41.7112V10.9872H44.4081V12.2363L44.5655 12.0579C44.985 11.5523 45.5244 11.1879 46.1837 10.9649C46.8429 10.7418 47.5172 10.6303 48.2064 10.6303C49.6748 10.6303 50.8584 11.069 51.7574 11.9463Z" fill="white"/>
<path d="M66.6653 6.6828V23.0323H63.9683V22.3408C63.0693 23.0249 61.9755 23.3669 60.687 23.3669C59.5932 23.3669 58.6193 23.0918 57.7652 22.5416C56.9262 21.9914 56.2669 21.233 55.7875 20.2664C55.323 19.2998 55.0907 18.2143 55.0907 17.0097C55.0907 15.7904 55.3305 14.6974 55.8099 13.7308C56.2894 12.7642 56.9636 12.0132 57.8327 11.4779C58.7017 10.9277 59.7056 10.6526 60.8443 10.6526C61.8782 10.6526 62.7921 10.8979 63.5862 11.3887V6.6828H66.6653ZM61.1814 20.6679C63.0394 20.6679 63.9683 19.4485 63.9683 17.0097C63.9683 15.8647 63.7511 14.9725 63.3166 14.333C62.882 13.6787 62.2078 13.3516 61.2938 13.3516C60.3199 13.3516 59.5782 13.6936 59.0688 14.3777C58.5743 15.0617 58.3271 15.9391 58.3271 17.0097C58.3271 18.0953 58.5669 18.9801 59.0463 19.6641C59.5258 20.3333 60.2375 20.6679 61.1814 20.6679Z" fill="white"/>
<path d="M77.3254 23.0323V21.5601C76.771 22.1996 76.1792 22.6606 75.5499 22.9431C74.9356 23.2256 74.134 23.3669 73.1451 23.3669C71.9315 23.3669 70.9575 23.0249 70.2234 22.3408C69.5042 21.6419 69.1446 20.7274 69.1446 19.5972C69.1446 18.0209 69.8713 16.9131 71.3246 16.2737C71.9389 16.006 72.6057 15.7978 73.3249 15.6491C74.0591 15.5004 75.0105 15.3442 76.1792 15.1807L76.9658 15.0691C76.8909 14.4892 76.6512 14.0728 76.2466 13.82C75.8421 13.5523 75.3476 13.4185 74.7633 13.4185C74.2089 13.4185 73.7145 13.5449 73.28 13.7977C72.8454 14.0356 72.5233 14.4 72.3135 14.8907L69.5716 14.0654C70.0061 13.069 70.6729 12.2512 71.5719 11.6117C72.4858 10.9723 73.5796 10.6526 74.8532 10.6526C76.1268 10.6526 77.1756 10.9054 77.9997 11.411C78.8238 11.9166 79.4006 12.6675 79.7302 13.6639C79.91 14.2141 79.9999 14.9427 79.9999 15.8498V23.0323H77.3254ZM76.5613 19.5526C76.831 19.1065 76.9658 18.4299 76.9658 17.5228C76.2616 17.6417 75.6473 17.7533 75.1229 17.8574C74.6135 17.9466 74.134 18.0581 73.6845 18.192C72.6507 18.4745 72.1337 18.9652 72.1337 19.6641C72.1337 20.021 72.2836 20.3333 72.5832 20.601C72.8829 20.8687 73.3099 21.0025 73.8643 21.0025C74.4187 21.0025 74.9431 20.8687 75.4375 20.601C75.932 20.3184 76.3066 19.969 76.5613 19.5526Z" fill="white"/>
</svg>
